<?xml version="1.0" standalone="no"?>
<!DOCTYPE svg PUBLIC "-//W3C//DTD SVG 20010904//EN"
 "http://www.w3.org/TR/2001/REC-SVG-20010904/DTD/svg10.dtd">
<svg version="1.0" xmlns="http://www.w3.org/2000/svg"
 width="643.000000pt" height="360.000000pt" viewBox="0 0 643.000000 360.000000"
 preserveAspectRatio="xMidYMid meet">
<metadata>
Created by potrace 1.16, written by Peter Selinger 2001-2019
</metadata>
<g transform="translate(0.000000,360.000000) scale(0.100000,-0.100000)"
fill="#000000" stroke="none">
<path d="M0 2220 l0 -1380 323 -3 322 -2 -322 -3 -323 -2 0 -415 0 -415 310 0
c171 0 310 2 310 5 0 14 -45 88 -56 92 -8 3 -24 25 -36 50 -12 25 -30 50 -39
57 -23 16 -89 104 -89 119 0 6 -20 34 -45 61 -25 27 -43 52 -40 56 2 4 -16 21
-40 39 -27 19 -42 37 -39 45 3 8 1 16 -3 19 -5 3 -9 -3 -10 -13 -1 -11 2 -22
8 -25 5 -4 9 -11 9 -18 0 -6 -6 -3 -13 8 -9 11 -19 15 -28 10 -11 -6 -12 -5
-1 6 16 17 16 34 -1 23 -7 -5 -1 1 13 13 36 32 114 71 157 79 31 6 34 8 18 14
-32 12 107 23 185 16 233 -23 454 -134 590 -295 23 -28 47 -48 53 -44 6 3 7 1
3 -6 -4 -6 2 -25 14 -41 29 -40 75 -143 95 -213 l16 -57 2232 2 c1228 1 2214
3 2192 5 -297 25 -610 106 -843 218 -129 62 -285 162 -355 227 -26 25 -47 43
-47 41 0 -2 -23 22 -51 54 -99 113 -158 282 -146 417 10 102 0 96 155 96 74 0
133 -2 131 -5 -3 -2 -60 -5 -126 -6 -99 -1 -120 -3 -110 -14 7 -7 14 -9 15 -4
7 17 22 9 22 -12 0 -11 -4 -18 -9 -15 -13 8 -24 -79 -16 -126 5 -29 10 -37 16
-27 6 10 9 7 9 -12 0 -38 24 -89 59 -127 17 -18 31 -42 31 -53 0 -10 7 -19 15
-19 8 0 15 -4 15 -9 0 -4 18 -20 40 -35 22 -14 40 -32 40 -39 0 -17 30 -34 73
-42 20 -4 38 -13 41 -21 3 -8 12 -14 19 -14 8 0 34 -10 58 -23 24 -12 78 -31
119 -41 41 -10 79 -23 85 -27 5 -5 32 -9 61 -9 34 0 56 -5 64 -15 7 -9 21 -13
31 -10 9 3 20 1 24 -5 3 -6 10 -8 14 -5 5 2 33 -2 62 -9 124 -32 430 -73 589
-79 69 -3 116 -2 105 2 -11 5 91 7 228 5 l247 -3 0 259 0 260 -37 0 c-255 2
-613 61 -848 138 -384 127 -595 298 -595 484 0 31 4 68 10 82 l10 26 382 -1
c243 -1 356 -5 310 -9 -40 -5 -76 -11 -79 -14 -4 -3 -1 -6 5 -6 19 0 14 -18
-5 -23 -17 -4 -17 -5 0 -6 10 0 15 -6 12 -11 -4 -6 0 -22 9 -35 9 -13 16 -31
16 -40 0 -8 6 -15 14 -15 8 0 22 -10 30 -22 9 -12 16 -18 16 -13 0 5 5 4 12
-3 7 -7 18 -12 25 -12 8 0 23 -9 35 -19 13 -13 41 -22 77 -26 31 -3 81 -10
111 -16 78 -15 242 3 320 35 19 8 65 27 103 42 l67 27 0 344 c0 283 -2 343
-14 343 -13 0 -136 -231 -136 -256 0 -8 -4 -14 -9 -14 -5 0 -12 -18 -16 -40
-4 -25 -12 -40 -21 -40 -8 0 -14 -7 -14 -15 0 -8 -8 -19 -19 -24 -10 -6 -22
-22 -25 -37 -11 -43 -28 -55 -50 -36 -19 17 -19 17 0 -16 10 -19 39 -50 64
-69 64 -52 69 -57 34 -40 -47 24 -113 102 -146 173 -54 115 -54 253 1 369 33
70 78 128 93 118 6 -3 8 -1 5 5 -16 25 133 113 214 127 l39 7 0 181 0 182 -42
-49 c-120 -139 -371 -329 -564 -425 -556 -277 -1253 -226 -1776 131 -49 34
-85 65 -81 71 3 6 1 7 -5 3 -14 -8 -136 98 -234 203 -245 264 -416 621 -468
979 l-12 82 -1624 0 -1624 0 0 -1380z m875 -171 c68 -12 168 -56 205 -88 14
-13 19 -20 12 -16 -7 4 -21 1 -30 -7 -15 -11 -16 -11 -4 3 10 13 10 18 -1 28
-8 6 -17 8 -20 4 -4 -3 -17 2 -29 13 l-23 19 19 -22 c11 -13 26 -23 35 -23 12
0 9 -6 -9 -20 -14 -11 -29 -19 -35 -19 -5 0 -4 3 3 6 6 2 12 9 12 14 0 6 -8 6
-19 -1 -27 -14 -31 -13 -25 8 4 13 2 12 -7 -3 -7 -11 -18 -24 -26 -28 -7 -5
-11 -12 -8 -16 2 -5 -11 -17 -30 -27 -19 -10 -35 -22 -35 -26 0 -5 -7 -8 -15
-8 -8 0 -15 -7 -15 -15 0 -8 -15 -21 -32 -29 -42 -19 -68 -40 -68 -55 0 -6 -5
-11 -12 -11 -17 0 -78 -43 -78 -55 -1 -5 -21 -23 -47 -39 -25 -16 -48 -38 -51
-48 -2 -10 -12 -18 -22 -18 -10 0 -23 -13 -30 -29 -8 -20 -21 -32 -41 -36 -16
-4 -29 -13 -29 -22 0 -17 -24 -43 -39 -43 -6 0 -11 -6 -12 -12 0 -10 -2 -10
-6 0 -2 6 -11 12 -19 12 -11 0 -14 -14 -12 -64 1 -37 6 -62 12 -59 5 3 6 1 3
-4 -9 -14 32 -65 45 -57 6 4 8 2 4 -4 -8 -13 65 -76 121 -103 24 -12 42 -23
39 -26 -7 -8 -80 33 -133 75 -65 52 -128 147 -154 234 -41 135 -11 304 71 408
18 22 36 38 41 35 5 -4 6 1 3 9 -7 17 96 97 162 127 103 46 215 59 329 38z
m3172 -1340 c41 -25 73 -85 73 -135 0 -45 -34 -108 -67 -123 -30 -14 -44 -14
-21 -1 15 9 13 15 -20 49 -66 70 -102 114 -102 126 0 7 -6 18 -14 24 -11 10
-17 8 -25 -6 -9 -16 -10 -15 -8 6 1 13 14 37 28 52 22 24 35 29 74 29 31 0 60
-7 82 -21z"/>
<path d="M3292 3549 c3 -29 2 -45 -3 -37 -5 7 -9 24 -10 38 -1 18 -3 20 -6 7
-3 -10 1 -50 8 -90 9 -56 14 -68 21 -52 7 16 7 14 4 -10 -3 -16 -1 -46 4 -65
9 -34 9 -34 8 -5 0 17 0 41 1 55 l1 24 16 -22 c8 -12 13 -35 11 -50 -4 -24 -4
-23 -6 7 -2 47 -13 31 -15 -21 -2 -59 13 -116 25 -97 7 10 8 6 3 -13 -3 -14
-1 -36 6 -48 6 -12 13 -29 15 -38 7 -35 65 -152 75 -152 5 0 10 -7 10 -15 0
-9 6 -12 15 -9 11 5 13 2 9 -10 -3 -9 -11 -13 -16 -9 -6 3 -3 -8 8 -26 10 -17
22 -31 27 -31 4 0 6 -4 2 -9 -3 -5 2 -16 10 -24 8 -9 19 -27 25 -42 6 -16 14
-23 22 -19 7 5 9 2 6 -8 -4 -8 4 -26 15 -39 12 -14 19 -20 14 -13 -4 6 -6 18
-4 25 2 8 2 11 0 6 -3 -4 -9 -5 -14 -1 -5 3 -5 13 1 25 9 15 7 19 -5 19 -9 0
-25 22 -38 50 -13 28 -27 47 -32 43 -4 -5 -2 3 4 15 7 13 10 26 7 30 -3 3 -6
0 -6 -7 0 -7 -5 -9 -11 -6 -6 4 -8 13 -5 20 2 7 -10 29 -29 49 -18 20 -31 36
-29 36 3 0 -2 11 -11 24 -9 13 -13 31 -8 41 5 14 3 17 -9 12 -19 -7 -29 38
-28 117 1 28 -4 52 -11 56 -7 5 -12 42 -13 101 -1 52 0 86 2 77 2 -10 10 -18
18 -18 10 0 14 12 14 40 0 28 -4 40 -14 40 -10 0 -16 13 -19 38 -3 26 -4 23
-2 -10 2 -39 0 -44 -12 -33 -7 8 -13 30 -13 49 0 30 -4 36 -21 36 -20 0 -21
-4 -17 -51z"/>
<path d="M3710 3567 c0 -70 69 -293 126 -407 17 -35 114 -191 124 -200 3 -3
23 -27 45 -55 100 -125 193 -209 335 -300 132 -85 283 -143 443 -171 142 -25
418 -15 552 20 54 15 102 30 105 34 3 4 15 8 28 10 27 2 198 83 257 121 212
136 367 307 484 536 79 156 159 445 122 445 -5 0 -7 -10 -3 -22 3 -13 1 -19
-5 -15 -10 6 -21 -44 -26 -113 -1 -14 -7 -32 -12 -40 -5 -8 -8 -26 -7 -40 2
-21 1 -22 -8 -10 -9 12 -10 9 -5 -13 3 -16 2 -26 -2 -24 -5 3 -10 -6 -11 -21
-1 -14 -5 -28 -10 -31 -14 -11 -33 -52 -27 -61 3 -5 -1 -12 -8 -17 -18 -10
-38 -49 -42 -78 -1 -13 -12 -35 -24 -50 -11 -15 -21 -33 -21 -39 0 -7 -18 -30
-40 -51 -22 -22 -39 -44 -36 -50 2 -5 -3 -16 -10 -23 -8 -8 -14 -9 -14 -2 0 6
-13 -4 -29 -22 -16 -18 -26 -35 -21 -38 12 -8 -14 -27 -33 -24 -9 1 -14 -2
-11 -7 6 -11 -41 -60 -50 -52 -2 3 -12 -7 -21 -21 -10 -14 -22 -23 -28 -19 -6
4 -7 1 -2 -7 6 -10 4 -12 -11 -6 -10 4 -15 4 -11 0 10 -10 -13 -35 -26 -27 -6
3 -7 1 -3 -5 4 -7 1 -12 -7 -12 -8 0 -20 -7 -27 -15 -7 -9 -19 -14 -26 -11 -8
3 -13 0 -11 -7 1 -7 -8 -11 -23 -9 -15 1 -20 -1 -13 -6 14 -9 -81 -62 -110
-62 -10 0 -17 -4 -17 -10 0 -11 -47 -26 -69 -21 -7 1 -10 -2 -7 -8 4 -5 -2
-10 -11 -10 -41 -1 -99 -14 -116 -26 -10 -7 -27 -10 -39 -7 -11 2 -23 0 -27
-5 -3 -6 -22 -14 -41 -17 -26 -5 -31 -4 -20 3 11 8 6 9 -20 3 -37 -7 -72 -8
-182 -1 -36 2 -61 1 -55 -3 20 -13 -6 -9 -100 13 -144 34 -294 79 -333 100 -8
4 -44 23 -80 41 -144 73 -306 215 -417 365 -65 87 -133 199 -133 218 0 7 -12
30 -27 51 -24 36 -42 90 -78 234 -28 114 -35 130 -55 130 -16 0 -20 -7 -20
-33z"/>
</g>
</svg>
